<mxfile host="app.diagrams.net" agent="Mozilla/5.0 (Windows NT 10.0; Win64; x64) AppleWebKit/537.36 (KHTML, like Gecko) Chrome/140.0.0.0 Safari/537.36 Edg/140.0.0.0" version="28.2.5">
  <diagram name="第 1 页" id="goM1Ynq6HDLZYo2_WHAz">
    <mxGraphModel dx="1721" dy="1104" grid="1" gridSize="10" guides="1" tooltips="1" connect="1" arrows="1" fold="1" page="1" pageScale="1" pageWidth="827" pageHeight="1169" math="0" shadow="0">
      <root>
        <mxCell id="0" />
        <mxCell id="1" parent="0" />
        <mxCell id="sYPCiOtT8farW3m1-MZ3-1" value="mode" style="rounded=0;whiteSpace=wrap;html=1;fontSize=16;fillColor=#d5e8d4;strokeColor=#82b366;" vertex="1" parent="1">
          <mxGeometry x="240" y="160" width="120" height="40" as="geometry" />
        </mxCell>
        <mxCell id="sYPCiOtT8farW3m1-MZ3-2" value="uid" style="rounded=0;whiteSpace=wrap;html=1;fontSize=16;fillColor=#d5e8d4;strokeColor=#82b366;" vertex="1" parent="1">
          <mxGeometry x="240" y="200" width="120" height="40" as="geometry" />
        </mxCell>
        <mxCell id="sYPCiOtT8farW3m1-MZ3-3" value="size" style="rounded=0;whiteSpace=wrap;html=1;fontSize=16;fillColor=#d5e8d4;strokeColor=#82b366;" vertex="1" parent="1">
          <mxGeometry x="240" y="240" width="120" height="40" as="geometry" />
        </mxCell>
        <mxCell id="sYPCiOtT8farW3m1-MZ3-4" value="mtime" style="rounded=0;whiteSpace=wrap;html=1;fontSize=16;fillColor=#d5e8d4;strokeColor=#82b366;" vertex="1" parent="1">
          <mxGeometry x="240" y="280" width="120" height="40" as="geometry" />
        </mxCell>
        <mxCell id="sYPCiOtT8farW3m1-MZ3-5" value="gid" style="rounded=0;whiteSpace=wrap;html=1;fontSize=16;fillColor=#d5e8d4;strokeColor=#82b366;" vertex="1" parent="1">
          <mxGeometry x="240" y="320" width="120" height="40" as="geometry" />
        </mxCell>
        <mxCell id="sYPCiOtT8farW3m1-MZ3-6" value="nlinks" style="rounded=0;whiteSpace=wrap;html=1;fontSize=16;fillColor=#d5e8d4;strokeColor=#82b366;" vertex="1" parent="1">
          <mxGeometry x="240" y="360" width="120" height="40" as="geometry" />
        </mxCell>
        <mxCell id="sYPCiOtT8farW3m1-MZ3-7" value="direct 0" style="rounded=0;whiteSpace=wrap;html=1;fontSize=16;fillColor=#fff2cc;strokeColor=#d6b656;" vertex="1" parent="1">
          <mxGeometry x="240" y="400" width="120" height="40" as="geometry" />
        </mxCell>
        <mxCell id="sYPCiOtT8farW3m1-MZ3-8" value="indirect1 7" style="rounded=0;whiteSpace=wrap;html=1;fontSize=16;fillColor=#fff2cc;strokeColor=#d6b656;" vertex="1" parent="1">
          <mxGeometry x="240" y="520" width="120" height="40" as="geometry" />
        </mxCell>
        <mxCell id="sYPCiOtT8farW3m1-MZ3-9" value="indirect2 8" style="rounded=0;whiteSpace=wrap;html=1;fontSize=16;fillColor=#fff2cc;strokeColor=#d6b656;" vertex="1" parent="1">
          <mxGeometry x="240" y="560" width="120" height="40" as="geometry" />
        </mxCell>
        <mxCell id="sYPCiOtT8farW3m1-MZ3-10" value="&lt;font style=&quot;font-size: 25px;&quot;&gt;...&lt;/font&gt;" style="rounded=0;whiteSpace=wrap;html=1;fontSize=16;fillColor=#fff2cc;strokeColor=#d6b656;" vertex="1" parent="1">
          <mxGeometry x="240" y="440" width="120" height="40" as="geometry" />
        </mxCell>
        <mxCell id="sYPCiOtT8farW3m1-MZ3-11" value="direct 6" style="rounded=0;whiteSpace=wrap;html=1;fontSize=16;fillColor=#fff2cc;strokeColor=#d6b656;" vertex="1" parent="1">
          <mxGeometry x="240" y="480" width="120" height="40" as="geometry" />
        </mxCell>
        <mxCell id="sYPCiOtT8farW3m1-MZ3-12" value="data" style="rounded=0;whiteSpace=wrap;html=1;fontSize=16;fillColor=#dae8fc;strokeColor=#6c8ebf;" vertex="1" parent="1">
          <mxGeometry x="560" y="280" width="120" height="80" as="geometry" />
        </mxCell>
        <mxCell id="sYPCiOtT8farW3m1-MZ3-13" value="" style="endArrow=classic;html=1;rounded=0;exitX=1;exitY=0.5;exitDx=0;exitDy=0;entryX=0;entryY=0.5;entryDx=0;entryDy=0;fontSize=16;fillColor=#647687;strokeColor=#314354;" edge="1" parent="1" source="sYPCiOtT8farW3m1-MZ3-7" target="sYPCiOtT8farW3m1-MZ3-12">
          <mxGeometry width="50" height="50" relative="1" as="geometry">
            <mxPoint x="400" y="390" as="sourcePoint" />
            <mxPoint x="450" y="340" as="targetPoint" />
          </mxGeometry>
        </mxCell>
        <mxCell id="sYPCiOtT8farW3m1-MZ3-14" value="data" style="rounded=0;whiteSpace=wrap;html=1;fontSize=16;fillColor=#dae8fc;strokeColor=#6c8ebf;" vertex="1" parent="1">
          <mxGeometry x="560" y="400" width="120" height="80" as="geometry" />
        </mxCell>
        <mxCell id="sYPCiOtT8farW3m1-MZ3-16" value="" style="endArrow=classic;html=1;rounded=0;exitX=1;exitY=0.5;exitDx=0;exitDy=0;entryX=0;entryY=0.5;entryDx=0;entryDy=0;fontSize=16;fillColor=#647687;strokeColor=#314354;" edge="1" parent="1" source="sYPCiOtT8farW3m1-MZ3-11" target="sYPCiOtT8farW3m1-MZ3-14">
          <mxGeometry width="50" height="50" relative="1" as="geometry">
            <mxPoint x="500" y="550" as="sourcePoint" />
            <mxPoint x="780" y="370" as="targetPoint" />
          </mxGeometry>
        </mxCell>
        <mxCell id="sYPCiOtT8farW3m1-MZ3-17" value="&lt;font style=&quot;font-size: 25px;&quot;&gt;...&lt;/font&gt;" style="text;html=1;align=center;verticalAlign=middle;whiteSpace=wrap;rounded=0;fontSize=16;" vertex="1" parent="1">
          <mxGeometry x="590" y="360" width="60" height="30" as="geometry" />
        </mxCell>
        <mxCell id="sYPCiOtT8farW3m1-MZ3-20" value="" style="endArrow=classic;html=1;rounded=0;exitX=1;exitY=0.5;exitDx=0;exitDy=0;entryX=0;entryY=0.5;entryDx=0;entryDy=0;fontSize=16;fillColor=#647687;strokeColor=#314354;" edge="1" parent="1" source="sYPCiOtT8farW3m1-MZ3-8" target="sYPCiOtT8farW3m1-MZ3-23">
          <mxGeometry width="50" height="50" relative="1" as="geometry">
            <mxPoint x="470" y="600" as="sourcePoint" />
            <mxPoint x="450" y="570" as="targetPoint" />
          </mxGeometry>
        </mxCell>
        <mxCell id="sYPCiOtT8farW3m1-MZ3-21" value="addr 1" style="rounded=0;whiteSpace=wrap;html=1;fontSize=16;fillColor=#fff2cc;strokeColor=#d6b656;" vertex="1" parent="1">
          <mxGeometry x="560" y="514.5" width="120" height="30" as="geometry" />
        </mxCell>
        <mxCell id="sYPCiOtT8farW3m1-MZ3-23" value="..." style="rounded=0;whiteSpace=wrap;html=1;fontSize=20;fillColor=#fff2cc;strokeColor=#d6b656;" vertex="1" parent="1">
          <mxGeometry x="560" y="544.5" width="120" height="20" as="geometry" />
        </mxCell>
        <mxCell id="sYPCiOtT8farW3m1-MZ3-24" value="addr 512" style="rounded=0;whiteSpace=wrap;html=1;fontSize=16;fillColor=#fff2cc;strokeColor=#d6b656;" vertex="1" parent="1">
          <mxGeometry x="560" y="564.5" width="120" height="30" as="geometry" />
        </mxCell>
        <mxCell id="sYPCiOtT8farW3m1-MZ3-25" value="addr 1" style="rounded=0;whiteSpace=wrap;html=1;fontSize=16;fillColor=#fff2cc;strokeColor=#d6b656;" vertex="1" parent="1">
          <mxGeometry x="560" y="715" width="120" height="30" as="geometry" />
        </mxCell>
        <mxCell id="sYPCiOtT8farW3m1-MZ3-26" value="..." style="rounded=0;whiteSpace=wrap;html=1;fontSize=20;fillColor=#fff2cc;strokeColor=#d6b656;" vertex="1" parent="1">
          <mxGeometry x="560" y="745" width="120" height="20" as="geometry" />
        </mxCell>
        <mxCell id="sYPCiOtT8farW3m1-MZ3-27" value="addr 512" style="rounded=0;whiteSpace=wrap;html=1;fontSize=16;fillColor=#fff2cc;strokeColor=#d6b656;" vertex="1" parent="1">
          <mxGeometry x="560" y="765" width="120" height="30" as="geometry" />
        </mxCell>
        <mxCell id="sYPCiOtT8farW3m1-MZ3-28" value="" style="endArrow=classic;html=1;rounded=0;exitX=1;exitY=0.5;exitDx=0;exitDy=0;entryX=0;entryY=0.5;entryDx=0;entryDy=0;fontSize=16;fillColor=#647687;strokeColor=#314354;" edge="1" parent="1" source="sYPCiOtT8farW3m1-MZ3-9" target="sYPCiOtT8farW3m1-MZ3-26">
          <mxGeometry width="50" height="50" relative="1" as="geometry">
            <mxPoint x="430" y="640" as="sourcePoint" />
            <mxPoint x="630" y="660" as="targetPoint" />
          </mxGeometry>
        </mxCell>
        <mxCell id="sYPCiOtT8farW3m1-MZ3-29" value="data" style="rounded=0;whiteSpace=wrap;html=1;fontSize=16;fillColor=#dae8fc;strokeColor=#6c8ebf;" vertex="1" parent="1">
          <mxGeometry x="720" y="434.5" width="120" height="80" as="geometry" />
        </mxCell>
        <mxCell id="sYPCiOtT8farW3m1-MZ3-30" value="data" style="rounded=0;whiteSpace=wrap;html=1;fontSize=16;fillColor=#dae8fc;strokeColor=#6c8ebf;" vertex="1" parent="1">
          <mxGeometry x="720" y="594.5" width="120" height="80" as="geometry" />
        </mxCell>
        <mxCell id="sYPCiOtT8farW3m1-MZ3-31" value="" style="endArrow=classic;html=1;rounded=0;exitX=1;exitY=0.5;exitDx=0;exitDy=0;entryX=0;entryY=0.5;entryDx=0;entryDy=0;fontSize=16;fillColor=#647687;strokeColor=#314354;" edge="1" parent="1" source="sYPCiOtT8farW3m1-MZ3-21" target="sYPCiOtT8farW3m1-MZ3-29">
          <mxGeometry width="50" height="50" relative="1" as="geometry">
            <mxPoint x="710" y="560" as="sourcePoint" />
            <mxPoint x="760" y="510" as="targetPoint" />
          </mxGeometry>
        </mxCell>
        <mxCell id="sYPCiOtT8farW3m1-MZ3-32" value="" style="endArrow=classic;html=1;rounded=0;exitX=1;exitY=0.5;exitDx=0;exitDy=0;entryX=0;entryY=0.5;entryDx=0;entryDy=0;fontSize=16;fillColor=#647687;strokeColor=#314354;" edge="1" parent="1" source="sYPCiOtT8farW3m1-MZ3-24" target="sYPCiOtT8farW3m1-MZ3-30">
          <mxGeometry width="50" height="50" relative="1" as="geometry">
            <mxPoint x="790" y="580" as="sourcePoint" />
            <mxPoint x="870" y="540" as="targetPoint" />
          </mxGeometry>
        </mxCell>
        <mxCell id="sYPCiOtT8farW3m1-MZ3-33" value="&lt;font style=&quot;font-size: 25px;&quot;&gt;...&lt;/font&gt;" style="text;html=1;align=center;verticalAlign=middle;whiteSpace=wrap;rounded=0;fontSize=16;" vertex="1" parent="1">
          <mxGeometry x="750" y="539.5" width="60" height="30" as="geometry" />
        </mxCell>
        <mxCell id="sYPCiOtT8farW3m1-MZ3-34" value="addr 1" style="rounded=0;whiteSpace=wrap;html=1;fontSize=16;fillColor=#fff2cc;strokeColor=#d6b656;" vertex="1" parent="1">
          <mxGeometry x="910" y="624.5" width="120" height="30" as="geometry" />
        </mxCell>
        <mxCell id="sYPCiOtT8farW3m1-MZ3-35" value="..." style="rounded=0;whiteSpace=wrap;html=1;fontSize=20;fillColor=#fff2cc;strokeColor=#d6b656;" vertex="1" parent="1">
          <mxGeometry x="910" y="654.5" width="120" height="20" as="geometry" />
        </mxCell>
        <mxCell id="sYPCiOtT8farW3m1-MZ3-36" value="addr 512" style="rounded=0;whiteSpace=wrap;html=1;fontSize=16;fillColor=#fff2cc;strokeColor=#d6b656;" vertex="1" parent="1">
          <mxGeometry x="910" y="674.5" width="120" height="30" as="geometry" />
        </mxCell>
        <mxCell id="sYPCiOtT8farW3m1-MZ3-37" value="addr 1" style="rounded=0;whiteSpace=wrap;html=1;fontSize=16;fillColor=#fff2cc;strokeColor=#d6b656;" vertex="1" parent="1">
          <mxGeometry x="910" y="890" width="120" height="30" as="geometry" />
        </mxCell>
        <mxCell id="sYPCiOtT8farW3m1-MZ3-38" value="..." style="rounded=0;whiteSpace=wrap;html=1;fontSize=16;fillColor=#fff2cc;strokeColor=#d6b656;" vertex="1" parent="1">
          <mxGeometry x="910" y="920" width="120" height="20" as="geometry" />
        </mxCell>
        <mxCell id="sYPCiOtT8farW3m1-MZ3-39" value="addr 512" style="rounded=0;whiteSpace=wrap;html=1;fontSize=16;fillColor=#fff2cc;strokeColor=#d6b656;" vertex="1" parent="1">
          <mxGeometry x="910" y="940" width="120" height="30" as="geometry" />
        </mxCell>
        <mxCell id="sYPCiOtT8farW3m1-MZ3-40" value="&lt;font style=&quot;font-size: 25px;&quot;&gt;...&lt;/font&gt;" style="text;html=1;align=center;verticalAlign=middle;whiteSpace=wrap;rounded=0;fontSize=16;" vertex="1" parent="1">
          <mxGeometry x="940" y="784.5" width="60" height="30" as="geometry" />
        </mxCell>
        <mxCell id="sYPCiOtT8farW3m1-MZ3-41" value="" style="endArrow=classic;html=1;rounded=0;exitX=1;exitY=0.5;exitDx=0;exitDy=0;entryX=0;entryY=0.5;entryDx=0;entryDy=0;fontSize=16;fillColor=#647687;strokeColor=#314354;" edge="1" parent="1" source="sYPCiOtT8farW3m1-MZ3-25" target="sYPCiOtT8farW3m1-MZ3-35">
          <mxGeometry width="50" height="50" relative="1" as="geometry">
            <mxPoint x="930" y="635" as="sourcePoint" />
            <mxPoint x="720" y="800" as="targetPoint" />
          </mxGeometry>
        </mxCell>
        <mxCell id="sYPCiOtT8farW3m1-MZ3-42" value="" style="endArrow=classic;html=1;rounded=0;exitX=1;exitY=0.5;exitDx=0;exitDy=0;entryX=0;entryY=0.5;entryDx=0;entryDy=0;fontSize=16;fillColor=#647687;strokeColor=#314354;" edge="1" parent="1" source="sYPCiOtT8farW3m1-MZ3-27" target="sYPCiOtT8farW3m1-MZ3-38">
          <mxGeometry width="50" height="50" relative="1" as="geometry">
            <mxPoint x="750" y="835" as="sourcePoint" />
            <mxPoint x="790" y="780" as="targetPoint" />
          </mxGeometry>
        </mxCell>
        <mxCell id="sYPCiOtT8farW3m1-MZ3-45" style="edgeStyle=orthogonalEdgeStyle;rounded=0;orthogonalLoop=1;jettySize=auto;html=1;exitX=0.5;exitY=1;exitDx=0;exitDy=0;" edge="1" parent="1" source="sYPCiOtT8farW3m1-MZ3-40" target="sYPCiOtT8farW3m1-MZ3-40">
          <mxGeometry relative="1" as="geometry" />
        </mxCell>
        <mxCell id="sYPCiOtT8farW3m1-MZ3-46" value="data" style="rounded=0;whiteSpace=wrap;html=1;fontSize=16;fillColor=#dae8fc;strokeColor=#6c8ebf;" vertex="1" parent="1">
          <mxGeometry x="1070" y="544.5" width="120" height="80" as="geometry" />
        </mxCell>
        <mxCell id="sYPCiOtT8farW3m1-MZ3-47" value="data" style="rounded=0;whiteSpace=wrap;html=1;fontSize=16;fillColor=#dae8fc;strokeColor=#6c8ebf;" vertex="1" parent="1">
          <mxGeometry x="1070" y="704.5" width="120" height="80" as="geometry" />
        </mxCell>
        <mxCell id="sYPCiOtT8farW3m1-MZ3-48" value="" style="endArrow=classic;html=1;rounded=0;exitX=1;exitY=0.5;exitDx=0;exitDy=0;entryX=0;entryY=0.5;entryDx=0;entryDy=0;fillColor=#647687;strokeColor=#314354;" edge="1" parent="1" source="sYPCiOtT8farW3m1-MZ3-34" target="sYPCiOtT8farW3m1-MZ3-46">
          <mxGeometry width="50" height="50" relative="1" as="geometry">
            <mxPoint x="860" y="649.5" as="sourcePoint" />
            <mxPoint x="910" y="599.5" as="targetPoint" />
          </mxGeometry>
        </mxCell>
        <mxCell id="sYPCiOtT8farW3m1-MZ3-49" value="" style="endArrow=classic;html=1;rounded=0;exitX=1;exitY=0.5;exitDx=0;exitDy=0;entryX=0;entryY=0.5;entryDx=0;entryDy=0;fillColor=#647687;strokeColor=#314354;" edge="1" parent="1" source="sYPCiOtT8farW3m1-MZ3-36" target="sYPCiOtT8farW3m1-MZ3-47">
          <mxGeometry width="50" height="50" relative="1" as="geometry">
            <mxPoint x="1150" y="754.5" as="sourcePoint" />
            <mxPoint x="1190" y="699.5" as="targetPoint" />
          </mxGeometry>
        </mxCell>
        <mxCell id="sYPCiOtT8farW3m1-MZ3-52" value="&lt;font style=&quot;font-size: 25px;&quot;&gt;...&lt;/font&gt;" style="text;html=1;align=center;verticalAlign=middle;whiteSpace=wrap;rounded=0;fontSize=16;" vertex="1" parent="1">
          <mxGeometry x="1100" y="649.5" width="60" height="30" as="geometry" />
        </mxCell>
        <mxCell id="sYPCiOtT8farW3m1-MZ3-53" value="data" style="rounded=0;whiteSpace=wrap;html=1;fontSize=16;fillColor=#dae8fc;strokeColor=#6c8ebf;" vertex="1" parent="1">
          <mxGeometry x="1070" y="810" width="120" height="80" as="geometry" />
        </mxCell>
        <mxCell id="sYPCiOtT8farW3m1-MZ3-54" value="data" style="rounded=0;whiteSpace=wrap;html=1;fontSize=16;fillColor=#dae8fc;strokeColor=#6c8ebf;" vertex="1" parent="1">
          <mxGeometry x="1070" y="970" width="120" height="80" as="geometry" />
        </mxCell>
        <mxCell id="sYPCiOtT8farW3m1-MZ3-55" value="&lt;font style=&quot;font-size: 25px;&quot;&gt;...&lt;/font&gt;" style="text;html=1;align=center;verticalAlign=middle;whiteSpace=wrap;rounded=0;fontSize=16;" vertex="1" parent="1">
          <mxGeometry x="1100" y="915" width="60" height="30" as="geometry" />
        </mxCell>
        <mxCell id="sYPCiOtT8farW3m1-MZ3-56" value="" style="endArrow=classic;html=1;rounded=0;exitX=1;exitY=0.5;exitDx=0;exitDy=0;entryX=0;entryY=0.5;entryDx=0;entryDy=0;fillColor=#647687;strokeColor=#314354;" edge="1" parent="1" source="sYPCiOtT8farW3m1-MZ3-37" target="sYPCiOtT8farW3m1-MZ3-53">
          <mxGeometry width="50" height="50" relative="1" as="geometry">
            <mxPoint x="700" y="760" as="sourcePoint" />
            <mxPoint x="750" y="710" as="targetPoint" />
          </mxGeometry>
        </mxCell>
        <mxCell id="sYPCiOtT8farW3m1-MZ3-57" value="" style="endArrow=classic;html=1;rounded=0;exitX=1;exitY=0.5;exitDx=0;exitDy=0;entryX=0;entryY=0.5;entryDx=0;entryDy=0;fillColor=#647687;strokeColor=#314354;" edge="1" parent="1" source="sYPCiOtT8farW3m1-MZ3-39" target="sYPCiOtT8farW3m1-MZ3-54">
          <mxGeometry width="50" height="50" relative="1" as="geometry">
            <mxPoint x="1310" y="975" as="sourcePoint" />
            <mxPoint x="1350" y="920" as="targetPoint" />
          </mxGeometry>
        </mxCell>
        <mxCell id="sYPCiOtT8farW3m1-MZ3-60" value="&lt;font style=&quot;font-size: 20px;&quot;&gt;Minix i Node&lt;/font&gt;" style="text;html=1;align=center;verticalAlign=middle;whiteSpace=wrap;rounded=0;" vertex="1" parent="1">
          <mxGeometry x="240" y="110" width="120" height="30" as="geometry" />
        </mxCell>
      </root>
    </mxGraphModel>
  </diagram>
</mxfile>
